# This file uses centimeters as units for non-parametric coordinates.

mtllib platform.mtl
g default
v -4.288340 -0.192597 0.179718
v -3.712817 -0.470110 0.187643
v -4.910949 0.300360 -0.229318
v -5.632447 0.300360 -0.585449
v -5.581772 -0.064351 -0.556376
v -3.723368 -0.764138 -0.245263
v -4.432112 -0.619759 -0.508829
v -3.570023 0.300360 -0.477875
v -6.084716 0.058243 -0.887326
v -4.247382 -0.910857 -0.941795
v -5.228898 -0.409826 -0.810873
v -3.649126 0.300360 -0.813673
v -5.716905 -0.282985 -1.083349
v -6.095022 -0.102551 -1.260920
v -5.550546 -0.479913 -1.624168
v -4.937181 -0.701584 -1.235287
v -3.617536 0.300360 -1.185089
v -5.992905 -0.207635 -1.879812
v -4.196143 -0.996125 -1.669422
v -3.757563 -1.134487 -1.501279
v -4.752600 -0.807631 -1.908463
v -4.605451 -0.747345 -2.285390
v -5.460397 -0.464777 -2.088640
v -5.730055 -0.114742 -2.563031
v -3.555785 0.300360 -1.676724
v -3.696039 -1.071391 -2.086406
v -5.373438 -0.350618 -2.465553
v -5.535881 0.115592 -2.745219
v -3.585116 0.300360 0.501904
v -3.348899 0.300360 0.496376
v -3.683671 0.300360 0.425606
v -3.546650 0.177362 0.503451
v -3.945640 0.300360 0.310505
v -3.332514 0.300360 0.358453
v -3.831404 -0.212172 0.394988
v -4.344474 0.300360 0.104623
v -3.422629 0.300360 -0.069673
v -4.115823 -0.921809 -2.178262
v -3.764756 -1.013814 -0.772020
v -4.859735 -0.174513 -0.198240
v -6.026228 0.300360 -0.835200
v -6.029369 0.300360 -1.131105
v -5.999894 0.300360 -1.452205
v -5.903769 0.300360 -1.895009
v -5.736747 0.300360 -2.331111
v -3.451745 0.300360 -2.154638
v -4.030340 0.300360 -2.338925
v -5.535729 0.300360 -2.688879
v -4.566165 0.300360 -2.527022
v -5.437215 0.300360 -2.914326
v -5.062930 0.300360 -2.714176
vt 0.239959 0.761898
vt 0.259700 0.763745
vt 0.239959 0.782399
vt 0.260452 0.784101
vt 0.135049 0.808251
vt 0.122826 0.790495
vt 0.167079 0.800026
vt 0.175410 0.575161
vt 0.195307 0.565841
vt 0.195766 0.595079
vt 0.222168 0.582169
vt 0.148749 0.554868
vt 0.165153 0.547251
vt 0.167079 0.782204
vt 0.239959 0.721130
vt 0.250024 0.719153
vt 0.239959 0.735243
vt 0.255121 0.737084
vt 0.180396 0.532217
vt 0.206250 0.549619
vt 0.224618 0.560341
vt 0.976890 0.947824
vt 0.976890 0.935720
vt 0.986955 0.945236
vt 0.993639 0.929904
vt 0.130818 0.537406
vt 0.147373 0.532293
vt 0.133332 0.522074
vt 0.167079 0.767875
vt 0.112446 0.768667
vt 0.167079 0.752961
vt 0.976890 0.922843
vt 0.158413 0.511523
vt 0.142364 0.497611
vt 0.976890 0.905522
vt 0.998008 0.905442
vt 0.214059 0.520317
vt 0.193221 0.506187
vt 0.107430 0.738953
vt 0.167079 0.733377
vt 0.165743 0.493270
vt 0.020156 0.693807
vt 0.024017 0.709905
vt 0.002899 0.695902
vt 0.002899 0.706147
vt 0.221335 0.500176
vt 0.237750 0.507224
vt 0.230642 0.530628
vt 0.110053 0.715550
vt 0.167079 0.714684
vt 0.172254 0.478567
vt 0.158462 0.471786
vt 0.202190 0.491956
vt 0.059925 0.614519
vt 0.053707 0.630934
vt 0.002899 0.604010
vt 0.002899 0.626181
vt 0.002899 0.646577
vt 0.046454 0.650079
vt 0.002899 0.684886
vt 0.010580 0.684449
vt 0.029961 0.680015
vt 0.002899 0.665386
vt 0.002899 0.679092
vt 0.599598 0.979015
vt 0.600863 0.970887
vt 0.605100 0.980768
vt 0.239959 0.806853
vt 0.245072 0.811835
vt 0.239959 0.810277
vt 0.239959 0.819963
vt 0.261266 0.801063
vt 0.239959 0.821716
vt 0.271989 0.807533
vt 0.239959 0.797063
vt 0.167079 0.818211
vt 0.219198 0.599925
vt 0.779672 0.364862
vt 0.759171 0.382945
vt 0.723570 0.350921
vt 0.722979 0.365251
vt 0.734717 0.401240
vt 0.731293 0.405129
vt 0.719854 0.401258
vt 0.721607 0.406759
vt 0.744507 0.394483
vt 0.720169 0.383073
vt 0.719362 0.336007
vt 0.806327 0.344655
vt 0.785852 0.259548
vt 0.766352 0.262230
vt 0.780059 0.251118
vt 0.747544 0.273773
vt 0.796868 0.272573
vt 0.727147 0.285662
vt 0.807113 0.289064
vt 0.712978 0.316423
vt 0.818243 0.319261
vt 0.814517 0.306385
vt 0.704976 0.297731
vt 0.820440 0.331365
vn -0.483419 0.021442 0.875127
vn -0.492798 0.024007 0.869812
vn -0.490110 0.049235 0.870269
vn -0.490110 0.049235 0.870269
vn -0.492798 0.024007 0.869812
vn -0.479316 0.053235 0.876026
vn 0.941685 -0.321597 0.099021
vn 0.980489 -0.196571 0.000381
vn 0.930406 -0.307974 -0.198740
vn -0.380338 -0.756218 0.532426
vn -0.368690 -0.804190 0.466204
vn -0.364177 -0.742223 0.562566
vn -0.364177 -0.742223 0.562566
vn -0.368690 -0.804190 0.466204
vn -0.354817 -0.795207 0.491682
vn -0.442003 -0.770092 0.459991
vn -0.410414 -0.818753 0.401501
vn -0.380338 -0.756218 0.532426
vn -0.380338 -0.756218 0.532426
vn -0.410414 -0.818753 0.401501
vn -0.368690 -0.804190 0.466204
vn 0.957199 -0.151055 -0.246885
vn 0.930406 -0.307974 -0.198740
vn 0.980489 -0.196571 0.000381
vn -0.545784 -0.024807 0.837559
vn -0.545784 -0.024807 0.837559
vn -0.500447 -0.008956 0.865721
vn -0.500447 -0.008956 0.865721
vn -0.545784 -0.024807 0.837559
vn -0.484243 -0.003412 0.874927
vn -0.410414 -0.818753 0.401501
vn -0.383900 -0.905669 0.179956
vn -0.368690 -0.804190 0.466204
vn -0.368690 -0.804190 0.466204
vn -0.383900 -0.905669 0.179956
vn -0.336515 -0.906680 0.254341
vn -0.336515 -0.906680 0.254341
vn -0.318815 -0.897415 0.304964
vn -0.368690 -0.804190 0.466204
vn -0.368690 -0.804190 0.466204
vn -0.318815 -0.897415 0.304964
vn -0.354817 -0.795207 0.491682
vn -0.980142 0.196382 -0.027490
vn -0.979742 0.193197 -0.052723
vn -0.980142 0.196382 -0.027490
vn -0.980142 0.196382 -0.027490
vn -0.979742 0.193197 -0.052723
vn -0.977421 0.174973 -0.118457
vn -0.442003 -0.770092 0.459991
vn -0.497203 -0.767922 0.403838
vn -0.479843 -0.827388 0.291855
vn -0.479843 -0.827388 0.291855
vn -0.497203 -0.767922 0.403838
vn -0.516837 -0.823194 0.235012
vn -0.410414 -0.818753 0.401501
vn -0.442003 -0.770092 0.459991
vn -0.479843 -0.827388 0.291855
vn 0.993486 -0.089643 -0.070356
vn 0.957199 -0.151055 -0.246885
vn 0.993503 -0.113786 -0.001925
vn 0.993486 -0.089643 -0.070356
vn 0.993503 -0.113786 -0.001925
vn 0.990245 -0.104584 0.092076
vn -0.977421 0.174973 -0.118457
vn -0.979742 0.193197 -0.052723
vn -0.973496 0.164807 -0.158572
vn -0.479843 -0.827388 0.291855
vn -0.516837 -0.823194 0.235012
vn -0.450247 -0.891417 0.051512
vn -0.450247 -0.891417 0.051512
vn -0.516837 -0.823194 0.235012
vn -0.506332 -0.857681 -0.089509
vn -0.383900 -0.905669 0.179956
vn -0.410414 -0.818753 0.401501
vn -0.450247 -0.891417 0.051512
vn -0.450247 -0.891417 0.051512
vn -0.410414 -0.818753 0.401501
vn -0.479843 -0.827388 0.291855
vn -0.948872 0.157995 -0.273276
vn -0.950769 0.157498 -0.266894
vn -0.973496 0.164807 -0.158572
vn -0.973496 0.164807 -0.158572
vn -0.950769 0.157498 -0.266894
vn -0.977421 0.174973 -0.118457
vn -0.336515 -0.906680 0.254341
vn -0.383900 -0.905669 0.179956
vn -0.293951 -0.954946 -0.040882
vn -0.293951 -0.954946 -0.040882
vn -0.383900 -0.905669 0.179956
vn -0.337504 -0.932839 -0.126107
vn 0.987887 -0.124263 0.092937
vn 0.981755 -0.134142 0.134769
vn 0.990245 -0.104584 0.092076
vn -0.383900 -0.905669 0.179956
vn -0.450247 -0.891417 0.051512
vn -0.337504 -0.932839 -0.126107
vn -0.337504 -0.932839 -0.126107
vn -0.450247 -0.891417 0.051512
vn -0.431093 -0.876498 -0.214266
vn -0.881319 0.200364 -0.427938
vn -0.950769 0.157498 -0.266894
vn -0.895741 0.189226 -0.402296
vn -0.895741 0.189226 -0.402296
vn -0.950769 0.157498 -0.266894
vn -0.948872 0.157995 -0.273276
vn -0.450247 -0.891417 0.051512
vn -0.506332 -0.857681 -0.089509
vn -0.431093 -0.876498 -0.214266
vn -0.264516 -0.946681 -0.183919
vn -0.271819 -0.949857 -0.154553
vn -0.293951 -0.954946 -0.040882
vn -0.293951 -0.954946 -0.040882
vn -0.271819 -0.949857 -0.154553
vn -0.287150 -0.957844 0.008912
vn 0.987887 -0.124263 0.092937
vn 0.979172 -0.143126 0.144007
vn 0.981755 -0.134142 0.134769
vn 0.981755 -0.134142 0.134769
vn 0.979172 -0.143126 0.144007
vn 0.979172 -0.143126 0.144007
vn -0.433521 -0.842873 -0.318787
vn -0.431093 -0.876498 -0.214266
vn -0.489773 -0.811001 -0.320000
vn -0.489773 -0.811001 -0.320000
vn -0.431093 -0.876498 -0.214266
vn -0.506332 -0.857681 -0.089509
vn -0.337504 -0.932839 -0.126107
vn -0.431093 -0.876498 -0.214266
vn -0.308635 -0.914730 -0.260793
vn -0.308635 -0.914730 -0.260793
vn -0.431093 -0.876498 -0.214266
vn -0.433521 -0.842873 -0.318787
vn 0.248522 -0.116449 -0.961601
vn 0.246519 -0.143303 -0.958484
vn 0.248522 -0.116449 -0.961601
vn 0.248522 -0.116449 -0.961601
vn 0.246519 -0.143303 -0.958484
vn 0.246077 -0.148907 -0.957744
vn 0.209095 -0.246504 -0.946317
vn 0.246077 -0.148907 -0.957744
vn 0.219049 -0.228135 -0.948668
vn 0.219049 -0.228135 -0.948668
vn 0.246077 -0.148907 -0.957744
vn 0.246519 -0.143303 -0.958484
vn -0.895741 0.189226 -0.402296
vn -0.865988 0.188480 -0.463185
vn -0.881319 0.200364 -0.427938
vn -0.881319 0.200364 -0.427938
vn -0.865988 0.188480 -0.463185
vn -0.859881 0.196683 -0.471085
vn 0.219049 -0.228135 -0.948668
vn 0.103454 -0.332945 -0.937254
vn 0.209095 -0.246504 -0.946317
vn 0.209095 -0.246504 -0.946317
vn 0.103454 -0.332945 -0.937254
vn 0.138127 -0.320379 -0.937165
vn 0.327785 -0.740438 -0.586778
vn 0.326628 -0.736549 -0.592292
vn 0.325234 -0.731890 -0.598798
vn -0.859881 0.196683 -0.471085
vn -0.865988 0.188480 -0.463185
vn -0.909492 0.121959 -0.397429
vn 0.323781 -0.727052 -0.605444
vn 0.325234 -0.731890 -0.598798
vn 0.326628 -0.736549 -0.592292
vn 0.528742 -0.846456 0.062803
vn 0.528742 -0.846456 0.062803
vn 0.528742 -0.846456 0.062803
vn -0.602302 -0.178601 0.778032
vn -0.602302 -0.178601 0.778032
vn -0.602302 -0.178601 0.778032
vn 0.023401 0.019894 0.999528
vn 0.023401 0.019894 0.999528
vn 0.023401 0.019894 0.999528
vn 0.540606 -0.476806 0.693110
vn 0.540606 -0.476806 0.693110
vn 0.540606 -0.476806 0.693110
vn 0.540606 -0.476806 0.693110
vn 0.540606 -0.476806 0.693110
vn 0.540606 -0.476806 0.693110
vn -0.430229 0.067131 0.900220
vn -0.417766 0.066281 0.906134
vn -0.430375 0.067141 0.900150
vn -0.430375 0.067141 0.900150
vn -0.417766 0.066281 0.906134
vn -0.417766 0.066281 0.906134
vn -0.430229 0.067131 0.900220
vn -0.430375 0.067141 0.900150
vn -0.479316 0.053235 0.876026
vn -0.479316 0.053235 0.876026
vn -0.430375 0.067141 0.900150
vn -0.490110 0.049235 0.870269
vn 0.930406 -0.307974 -0.198740
vn 0.896566 -0.400697 -0.188709
vn 0.941685 -0.321597 0.099021
vn -0.364177 -0.742223 0.562566
vn -0.362976 -0.736471 0.570840
vn -0.336441 -0.679111 0.652392
vn -0.293951 -0.954946 -0.040882
vn -0.337504 -0.932839 -0.126107
vn -0.264516 -0.946681 -0.183919
vn -0.264516 -0.946681 -0.183919
vn -0.337504 -0.932839 -0.126107
vn -0.308635 -0.914730 -0.260793
vn -0.318815 -0.897415 0.304964
vn -0.336515 -0.906680 0.254341
vn -0.287150 -0.957844 0.008912
vn -0.287150 -0.957844 0.008912
vn -0.336515 -0.906680 0.254341
vn -0.293951 -0.954946 -0.040882
vn -0.492798 0.024007 0.869812
vn -0.483419 0.021442 0.875127
vn -0.484243 -0.003412 0.874927
vn -0.484243 -0.003412 0.874927
vn -0.483419 0.021442 0.875127
vn -0.500447 -0.008956 0.865721
vn -0.364177 -0.742223 0.562566
vn -0.354817 -0.795207 0.491682
vn -0.362976 -0.736471 0.570840
vn 0.993503 -0.113786 -0.001925
vn 0.957199 -0.151055 -0.246885
vn 0.980489 -0.196571 0.000381
vn 0.990245 -0.104584 0.092076
vn 0.993503 -0.113786 -0.001925
vn 0.987887 -0.124263 0.092937
vn 0.014687 -0.362845 -0.931734
vn 0.138127 -0.320379 -0.937165
vn 0.103454 -0.332945 -0.937254
vn -0.000000 1.000000 0.000000
vn -0.000000 1.000000 0.000000
vn -0.000000 1.000000 0.000000
vn -0.000000 1.000000 0.000000
vn -0.000000 1.000000 0.000000
vn -0.000000 1.000000 0.000000
vn -0.000000 1.000000 0.000000
vn -0.000000 1.000000 0.000000
vn -0.000000 1.000000 0.000000
vn -0.000000 1.000000 0.000000
vn -0.000000 1.000000 0.000000
vn -0.000000 1.000000 0.000000
vn -0.000000 1.000000 0.000000
vn -0.000000 1.000000 0.000000
vn -0.000000 1.000000 0.000000
vn -0.000000 1.000000 0.000000
vn -0.000000 1.000000 0.000000
vn -0.000000 1.000000 0.000000
vn -0.000000 1.000000 0.000000
vn -0.000000 1.000000 0.000000
vn -0.000000 1.000000 0.000000
vn -0.000000 1.000000 0.000000
vn -0.000000 1.000000 0.000000
vn -0.000000 1.000000 0.000000
vn -0.000000 1.000000 0.000000
vn -0.000000 1.000000 0.000000
vn -0.000000 1.000000 0.000000
vn -0.000000 1.000000 0.000000
vn -0.000000 1.000000 0.000000
vn -0.000000 1.000000 0.000000
vn -0.000000 1.000000 0.000000
vn -0.000000 1.000000 0.000000
vn -0.000000 1.000000 0.000000
vn -0.000000 1.000000 0.000000
vn -0.000000 1.000000 0.000000
vn -0.000000 1.000000 0.000000
vn -0.000000 1.000000 0.000000
vn -0.000000 1.000000 0.000000
vn -0.000000 1.000000 0.000000
vn -0.000000 1.000000 0.000000
vn -0.000000 1.000000 0.000000
vn -0.000000 1.000000 0.000000
vn -0.000000 1.000000 0.000000
vn -0.000000 1.000000 0.000000
vn -0.000000 1.000000 0.000000
vn -0.000000 1.000000 0.000000
vn -0.000000 1.000000 0.000000
vn -0.000000 1.000000 0.000000
vn -0.000000 1.000000 0.000000
vn -0.000000 1.000000 0.000000
vn -0.000000 1.000000 0.000000
vn -0.000000 1.000000 0.000000
vn -0.000000 1.000000 0.000000
vn -0.000000 1.000000 0.000000
vn -0.000000 1.000000 0.000000
vn -0.000000 1.000000 0.000000
vn -0.000000 1.000000 0.000000
vn -0.000000 1.000000 0.000000
vn -0.000000 1.000000 0.000000
vn -0.000000 1.000000 0.000000
vn -0.000000 1.000000 0.000000
vn -0.000000 1.000000 0.000000
vn -0.000000 1.000000 0.000000
vn -0.000000 1.000000 0.000000
vn -0.000000 1.000000 0.000000
vn -0.000000 1.000000 0.000000
s off
g polySurface40 polySurface39
usemtl StingrayPBS2SG
f 3/1/1 40/2/2 36/3/3
f 36/3/4 40/2/5 1/4/6
f 2/5/7 6/6/8 37/7/9
f 40/8/10 7/9/11 1/10/12
f 1/10/13 7/9/14 6/11/15
f 5/12/16 11/13/17 40/8/18
f 40/8/19 11/13/20 7/9/21
f 8/14/22 37/7/23 6/6/24
f 41/15/25 9/16/26 4/17/27
f 4/17/28 9/16/29 5/18/30
f 11/13/31 16/19/32 7/9/33
f 7/9/34 16/19/35 10/20/36
f 10/20/37 39/21/38 7/9/39
f 7/9/40 39/21/41 6/11/42
f 41/22/43 42/23/44 9/24/45
f 9/24/46 42/23/47 14/25/48
f 5/12/49 9/26/50 13/27/51
f 13/27/52 9/26/53 14/28/54
f 11/13/55 5/12/56 13/27/57
f 12/29/58 8/14/59 39/30/60
f 12/29/61 39/30/62 17/31/63
f 14/25/64 42/23/65 43/32/66
f 13/27/67 14/28/68 15/33/69
f 15/33/70 14/28/71 18/34/72
f 16/19/73 11/13/74 15/33/75
f 15/33/76 11/13/77 13/27/78
f 44/35/79 18/36/80 43/32/81
f 43/32/82 18/36/83 14/25/84
f 10/20/85 16/19/86 19/37/87
f 19/37/88 16/19/89 21/38/90
f 20/39/91 25/40/92 17/31/93
f 16/19/94 15/33/95 21/38/96
f 21/38/97 15/33/98 23/41/99
f 24/42/100 18/43/101 45/44/102
f 45/44/103 18/43/104 44/45/105
f 15/33/106 18/34/107 23/41/108
f 38/46/109 26/47/110 19/37/111
f 19/37/112 26/47/113 20/48/114
f 20/39/115 26/49/116 25/40/117
f 25/40/118 26/49/119 46/50/120
f 27/51/121 23/41/122 24/52/123
f 24/52/124 23/41/125 18/34/126
f 21/38/127 23/41/128 22/53/129
f 22/53/130 23/41/131 27/51/132
f 26/54/133 38/55/134 46/56/135
f 46/56/136 38/55/137 47/57/138
f 49/58/139 47/57/140 22/59/141
f 22/59/142 47/57/143 38/55/144
f 45/44/145 48/60/146 24/42/147
f 24/42/148 48/60/149 28/61/150
f 22/59/151 27/62/152 49/58/153
f 49/58/154 27/62/155 51/63/156
f 24/42/157 28/61/158 51/63/159
f 28/61/160 48/60/161 50/64/162
f 50/64/163 51/63/164 28/61/165
f 30/65/166 32/66/167 34/67/168
f 31/68/169 32/69/170 29/70/171
f 29/70/172 32/69/173 30/71/174
f 32/69/175 35/72/176 34/73/177
f 34/73/178 35/72/179 2/74/180
f 35/72/181 32/69/182 33/75/183
f 33/75/184 32/69/185 31/68/186
f 35/72/187 33/75/188 1/4/189
f 1/4/190 33/75/191 36/3/192
f 37/7/193 34/76/194 2/5/195
f 1/4/196 2/74/197 35/72/198
f 19/37/199 21/38/200 38/46/201
f 38/46/202 21/38/203 22/53/204
f 39/21/205 10/20/206 20/48/207
f 20/48/208 10/20/209 19/37/210
f 40/2/211 3/1/212 5/18/213
f 5/18/214 3/1/215 4/17/216
f 1/10/217 6/11/218 2/77/219
f 39/30/220 8/14/221 6/6/222
f 17/31/223 39/30/224 20/39/225
f 24/42/226 51/63/227 27/62/228
f 3/78/229 36/79/230 12/80/231
f 12/80/232 36/79/233 8/81/234
f 31/82/235 29/83/236 34/84/237
f 34/84/238 29/83/239 30/85/240
f 33/86/241 31/82/242 37/87/243
f 37/87/244 31/82/245 34/84/246
f 36/79/247 33/86/248 8/81/249
f 8/81/250 33/86/251 37/87/252
f 12/80/253 17/88/254 3/78/255
f 3/78/256 17/88/257 4/89/258
f 48/90/259 51/91/260 50/92/261
f 49/93/262 51/91/263 45/94/264
f 45/94/265 51/91/266 48/90/267
f 47/95/268 49/93/269 44/96/270
f 44/96/271 49/93/272 45/94/273
f 17/88/274 25/97/275 4/89/276
f 4/89/277 25/97/278 42/98/279
f 25/97/280 47/95/281 43/99/282
f 43/99/283 47/95/284 44/96/285
f 47/95/286 25/97/287 46/100/288
f 4/89/289 42/98/290 41/101/291
f 42/98/292 25/97/293 43/99/294
